<?xml version="1.0" ?><svg width="120px" height="120px" viewBox="0 0 120 120" id="Layer_1" style="enable-background:new 0 0 120 120;" version="1.1" xml:space="preserve" xmlns="http://www.w3.org/2000/svg" xmlns:xlink="http://www.w3.org/1999/xlink"><style type="text/css">
	.st0{fill:#EE5007;}
	.st1{fill:#F8CB2E;}
	.st2{fill:#B22727;}
</style><g><path class="st0" d="M90.6,76.9H52.5c-1.4,0-2.7-0.6-3.5-1.7s-1.2-2.4-1-3.8l0.6-3.2l-7.2-33.6H26c-0.6,0-1-0.4-1-1s0.4-1,1-1h16.2   c0.5,0,0.9,0.3,1,0.8L50.6,68c0,0.1,0,0.3,0,0.4l-0.7,3.4c-0.1,0.8,0.1,1.5,0.5,2.1s1.2,0.9,2,0.9h38.2c0.6,0,1,0.4,1,1   S91.2,76.9,90.6,76.9z"/><path class="st1" d="M44,37.1l5.8,27.3h38.3c1.7,0,3.2-1.2,3.6-2.9L96,39.9L44,37.1z"/><path class="st2" d="M37.7,35.2H25.4c-0.8,0-1.4-0.6-1.4-1.4v-0.2c0-0.8,0.6-1.4,1.4-1.4h12.3V35.2z"/><circle class="st2" cx="59.5" cy="83.4" r="4.4"/><circle class="st0" cx="59.5" cy="83.4" r="2.6"/><circle class="st2" cx="81" cy="83.4" r="4.4"/><circle class="st0" cx="81" cy="83.4" r="2.6"/></g></svg>