<?xml version="1.0" ?><svg width="56px" height="56px" viewBox="-7.5 0 56 56" version="1.1" xmlns="http://www.w3.org/2000/svg" xmlns:xlink="http://www.w3.org/1999/xlink"><title/><desc/><g fill="none" fill-rule="evenodd" id="Page-1" stroke="none" stroke-width="1"><g fill="#000000" id="007---Coffee-Cup"><path d="M7.91,56 L32.09,56 L33.1,46 L6.9,46 L7.91,56 Z M10.12,48 C10.6694401,47.9478042 11.1572823,48.3506097 11.21,48.9 L11.62,52.9 C11.6701562,53.4507421 11.2697683,53.9401052 10.72,54 L10.62,54 C10.105588,53.9997955 9.67420242,53.6115485 9.62,53.1 L9.22,49.1 C9.1698438,48.5492579 9.57023174,48.0598948 10.12,48 Z" fill-rule="nonzero" id="Shape"/><path d="M36.79,9 L3.21,9 L4.21,19 L35.79,19 L36.79,9 Z M7.02,17 L6.92,17 C6.405588,16.9997955 5.97420242,16.6115485 5.92,16.1 L5.52,12.1 C5.4698438,11.5492579 5.87023174,11.0598948 6.42,11 C6.96944011,10.9478042 7.4572823,11.3506097 7.51,11.9 L7.92,15.9 C7.9701562,16.4507421 7.56976826,16.9401052 7.02,17 Z" fill-rule="nonzero" id="Shape"/><polygon id="Path" points="34.113 44.026 34.114 44.025 34.114 44 34.113 44"/><polygon id="Path" points="35 5 5 5 0 5 0 7 2.1 7 37.9 7 41.001 7 41 5"/><path d="M5.89,44 L34.11,44 L36.87,21 L3.13,21 L5.89,44 Z M8.22,29.88 L9.42,39.88 C9.45467582,40.1430642 9.38197194,40.4090107 9.21828871,40.6178479 C9.05460547,40.8266851 8.8137306,40.9608219 8.55,40.99 C8.51056771,40.9982848 8.47025966,41.0016438 8.43,41 C7.92518533,40.9985995 7.50057605,40.621169 7.44,40.12 L6.24,30.12 C6.16739032,29.7520914 6.30672305,29.3744823 6.60090094,29.1419134 C6.89507883,28.9093446 7.29464921,28.8609118 7.63587189,29.0164624 C7.97709456,29.172013 8.20260842,29.5053983 8.22,29.88 Z M6.39,23.01 C6.65306421,22.9753242 6.91901068,23.0480281 7.12784791,23.2117113 C7.33668513,23.3753945 7.47082191,23.6162694 7.5,23.88 L7.74,25.88 C7.77467582,26.1430642 7.70197194,26.4090107 7.53828871,26.6178479 C7.37460547,26.8266851 7.1337306,26.9608219 6.87,26.99 C6.83056771,26.9982848 6.79025966,27.0016438 6.75,27 C6.24518533,26.9985995 5.82057605,26.621169 5.76,26.12 L5.52,24.12 C5.48532418,23.8569358 5.55802806,23.5909893 5.72171129,23.3821521 C5.88539453,23.1733149 6.1262694,23.0391781 6.39,23.01 Z" fill-rule="nonzero" id="Shape"/><path d="M34,0.068 C24.6759908,0.658000471 15.3240092,0.658000471 6,0.068 L6,3 L34,3 L34,0.068 Z" id="Path"/></g></g></svg>