<?xml version="1.0" encoding="iso-8859-1"?>
<!-- Generator: Adobe Illustrator 19.0.0, SVG Export Plug-In . SVG Version: 6.00 Build 0)  -->
<svg version="1.1" id="Layer_1" xmlns="http://www.w3.org/2000/svg" xmlns:xlink="http://www.w3.org/1999/xlink" x="0px" y="0px"
	 viewBox="0 0 306.481 306.481" style="enable-background:new 0 0 306.481 306.481;" xml:space="preserve">
<g>
	<path style="fill:#FEE050;" d="M306.481,153.24C306.481,68.606,237.874,0,153.24,0C68.613,0,0,68.606,0,153.24
		c0,84.633,68.613,153.24,153.24,153.24C237.874,306.481,306.481,237.873,306.481,153.24z"/>
	<g>
		<path style="fill:#FB7598;" d="M243.551,220.434l-18.663-22.055c-9.136,14.472-22.53,25.977-38.427,32.766L205,253.054
			c9.009,10.645,24.94,11.973,35.587,2.966C251.229,247.01,252.558,231.079,243.551,220.434z"/>
		<path style="fill:#BA5771;" d="M223.478,231.608l-13.521-15.497c-1.561,1.41-3.176,2.762-4.839,4.054l13.604,15.593
			c0.623,0.715,1.499,1.081,2.378,1.081c0.735,0,1.475-0.256,2.073-0.778C224.489,234.915,224.625,232.922,223.478,231.608z"/>
	</g>
	<path style="fill:#AF8400;" d="M153.24,244.238c-37.657,0-71.884-23.667-85.17-58.894c-1.23-3.262,0.417-6.904,3.679-8.134
		c3.261-1.23,6.903,0.417,8.134,3.679c11.443,30.339,40.923,50.724,73.357,50.724c32.435,0,61.915-20.385,73.359-50.724
		c1.227-3.262,4.868-4.91,8.133-3.679c3.262,1.23,4.909,4.873,3.679,8.134C225.126,220.571,190.897,244.238,153.24,244.238z"/>
	<path style="fill:#1E252B;" d="M79.595,145.729c-3.486,0-6.313-2.827-6.313-6.313c0-9.552-7.77-17.322-17.322-17.322
		s-17.322,7.77-17.322,17.322c0,3.486-2.826,6.313-6.313,6.313c-3.486,0-6.312-2.827-6.312-6.313
		c0-16.513,13.434-29.947,29.947-29.947c16.514,0,29.947,13.434,29.947,29.947C85.907,142.903,83.08,145.729,79.595,145.729z"/>
	<path style="fill:#1E252B;" d="M274.156,145.729c-3.487,0-6.313-2.827-6.313-6.313c0-9.552-7.771-17.322-17.322-17.322
		c-9.553,0-17.322,7.77-17.322,17.322c0,3.486-2.826,6.313-6.313,6.313c-3.485,0-6.313-2.827-6.313-6.313
		c0-16.513,13.434-29.947,29.947-29.947s29.947,13.434,29.947,29.947C280.467,142.903,277.641,145.729,274.156,145.729z"/>
</g>
<g>
</g>
<g>
</g>
<g>
</g>
<g>
</g>
<g>
</g>
<g>
</g>
<g>
</g>
<g>
</g>
<g>
</g>
<g>
</g>
<g>
</g>
<g>
</g>
<g>
</g>
<g>
</g>
<g>
</g>
</svg>
